<svg width="41" height="60" viewBox="0 0 41 60" fill="none" xmlns="http://www.w3.org/2000/svg">
<g clip-path="url(#clip0_188_535)">
<path d="M12.6952 0.563477L10.9919 1.8955C10.6451 2.16524 10.3646 2.50802 10.1711 2.89849C9.97761 3.28896 9.87607 3.71713 9.87402 4.1513V4.35197C9.87386 4.7856 9.97295 5.21373 10.164 5.60477C10.355 5.9958 10.6331 6.33975 10.9778 6.61122L18.0659 12.1884C18.3675 12.4274 18.6181 12.7224 18.8033 13.0565C18.9886 13.3906 19.1048 13.7573 19.1454 14.1355C19.186 14.5138 19.1502 14.8962 19.04 15.2608C18.9298 15.6255 18.7474 15.9652 18.5032 16.2606L16.6483 18.5095C16.2768 18.9527 16.0495 19.4951 15.9959 20.0664L15.9113 20.9383C15.8713 21.389 15.9391 21.8426 16.1093 22.2631C16.2795 22.6835 16.5473 23.0592 16.8916 23.3602L29.8124 34.5976C30.0778 34.8267 30.3822 35.0082 30.7117 35.1339L31.1877 35.3138C31.6194 35.476 32.0838 35.5367 32.5437 35.491C33.0037 35.4454 33.4463 35.2946 33.8361 35.0508L34.1887 34.8294C34.5731 34.5877 34.8953 34.2621 35.1302 33.8779C35.3651 33.4938 35.5064 33.0616 35.5429 32.6151L35.6134 31.7467C35.6501 31.2985 35.5797 30.848 35.4076 30.4311C35.2356 30.0142 34.9667 29.6426 34.6225 29.3456L25.5349 21.5126C24.9879 21.039 24.639 20.3834 24.5557 19.6723C24.4723 18.9611 24.6604 18.245 25.0835 17.6618L27.1288 14.8352C27.5157 14.3043 27.7072 13.6601 27.6719 13.0084C27.651 12.5957 27.54 12.1922 27.3466 11.8251C27.1531 11.458 26.8816 11.136 26.5505 10.8806L13.1501 0.563477" fill="#4DA747"/>
<path d="M19.7339 28.8505L5.74651 17.437C4.45725 16.385 2.54287 16.5576 1.47061 17.8225L0.699425 18.7323C-0.372834 19.9972 -0.196927 21.8754 1.09232 22.9274L15.0797 34.3408C16.369 35.3928 18.2834 35.2202 19.3556 33.9553L20.1268 33.0456C21.1991 31.7807 21.0232 29.9025 19.7339 28.8505Z" fill="#EBC82A"/>
<path d="M32.7042 11.8464C36.0385 11.8464 38.7415 9.19448 38.7415 5.92319C38.7415 2.6519 36.0385 0 32.7042 0C29.37 0 26.667 2.6519 26.667 5.92319C26.667 9.19448 29.37 11.8464 32.7042 11.8464Z" fill="#EBC82A"/>
<path d="M0.525391 52.7066V42.7285H2.79993V52.7066H0.525391ZM2.2886 52.7066V50.7553H7.31023V52.7066H2.2886Z" fill="#4DA747"/>
<path d="M11.2846 52.8623C10.6201 52.8726 9.95998 52.7551 9.34156 52.5163C8.77064 52.2892 8.2621 51.9337 7.85693 51.4784L9.32745 50.0356C9.53121 50.3159 9.80927 50.536 10.1315 50.6722C10.4798 50.8297 10.8588 50.9111 11.2423 50.911C11.5548 50.9191 11.8649 50.8563 12.1486 50.7276C12.399 50.6137 12.6134 50.4356 12.7692 50.2121C12.919 49.9701 12.9982 49.6925 12.9982 49.4094C12.9982 49.1263 12.919 48.8487 12.7692 48.6067C12.6049 48.3773 12.3774 48.1985 12.1133 48.0912C11.7949 47.9671 11.4543 47.9071 11.1118 47.9148C10.9197 47.9165 10.7279 47.928 10.537 47.9494C10.3654 47.9665 10.1962 48.0025 10.0327 48.0566L11.0413 46.8145C11.3199 46.7384 11.5773 46.6727 11.8171 46.6208C12.0396 46.5731 12.2665 46.5476 12.4942 46.5447C12.9875 46.534 13.4746 46.6535 13.9048 46.8907C14.3221 47.1341 14.6626 47.4862 14.8886 47.9078C15.1474 48.4266 15.2713 49.0001 15.2491 49.5773C15.227 50.1545 15.0595 50.7172 14.7617 51.2154C14.4218 51.7302 13.9417 52.1413 13.3758 52.4021C12.7245 52.7125 12.0086 52.8701 11.2846 52.8623ZM8.49169 44.6314V42.7285H15.0579V43.9706L13.2735 44.6314H8.49169ZM10.0327 48.0912V46.8353L12.5012 44.0086H15.0508L12.4871 46.8664L10.0327 48.0912Z" fill="#4DA747"/>
<path d="M16.458 52.7071V42.4453H18.6902V47.5209L18.3376 49.1746L18.6691 50.8561V52.7071H16.458ZM20.5204 52.849C20.0659 52.855 19.6164 52.7554 19.2086 52.5583C18.8304 52.3773 18.5016 52.1104 18.2494 51.7799C18.0082 51.4608 17.8617 51.0823 17.8263 50.6866V47.7873C17.8605 47.3943 18.01 47.0194 18.2565 46.7078C18.5123 46.3883 18.8441 46.1353 19.2227 45.9709C19.6316 45.7948 20.074 45.7063 20.5204 45.7114C21.1415 45.6992 21.7532 45.8612 22.2837 46.1784C22.7979 46.487 23.2181 46.9256 23.5003 47.4482C23.7923 48.017 23.9445 48.645 23.9445 49.2819C23.9445 49.9188 23.7923 50.5468 23.5003 51.1156C23.2174 51.6386 22.7974 52.0781 22.2837 52.3888C21.7523 52.7033 21.1408 52.8629 20.5204 52.849ZM20.1008 50.8838C20.3815 50.8879 20.6581 50.8173 20.9013 50.6797C21.1379 50.5417 21.3317 50.3431 21.462 50.1053C21.6009 49.8485 21.6736 49.5622 21.6736 49.2715C21.6736 48.9808 21.6009 48.6945 21.462 48.4377C21.3325 48.2002 21.1384 48.0026 20.9013 47.8668C20.6588 47.7277 20.3817 47.657 20.1008 47.6627C19.8131 47.6566 19.5292 47.7271 19.2791 47.8668C19.0473 48.0025 18.8601 48.2007 18.7396 48.4377C18.6071 48.6912 18.5405 48.9728 18.5457 49.2577C18.5398 49.5544 18.6088 49.848 18.7467 50.1122C18.8704 50.3524 19.0628 50.552 19.3003 50.6866C19.5453 50.8189 19.8211 50.8869 20.1008 50.8838Z" fill="#4DA747"/>
<path d="M25.0376 52.7066V45.8389H27.2557V52.7066H25.0376ZM29.6784 52.7066V48.7832C29.6827 48.6246 29.6537 48.4668 29.593 48.3198C29.5323 48.1727 29.4413 48.0395 29.3257 47.9286C29.213 47.8167 29.0783 47.7284 28.9298 47.6689C28.7813 47.6095 28.6221 47.5801 28.4618 47.5826C28.2454 47.5801 28.0319 47.6313 27.8411 47.7314C27.66 47.8291 27.5099 47.9739 27.4074 48.15C27.2984 48.3386 27.2436 48.5526 27.2487 48.7693L26.3988 48.3611C26.3884 47.8651 26.5164 47.3757 26.7691 46.946C27.0072 46.5497 27.3543 46.2271 27.7706 46.0153C28.2172 45.7845 28.7151 45.6657 29.2199 45.6693C29.6911 45.6611 30.1557 45.7784 30.5643 46.0087C30.9729 46.239 31.3102 46.5737 31.5403 46.9772C31.7729 47.3751 31.8945 47.8262 31.893 48.285V52.6789L29.6784 52.7066Z" fill="#4DA747"/>
<path d="M36.1918 52.8483C35.5859 52.8557 34.9907 52.6911 34.478 52.3743C33.9708 52.06 33.5563 51.6211 33.2755 51.1011C32.9739 50.5371 32.8223 49.9076 32.8347 49.2708C32.8245 48.6299 32.9759 47.9964 33.2755 47.4267C33.5498 46.9053 33.9629 46.4666 34.4709 46.157C34.9879 45.8454 35.5852 45.6857 36.1918 45.6968C36.6323 45.6908 37.0686 45.7819 37.4684 45.9632C37.8343 46.134 38.1525 46.3893 38.3959 46.7071C38.6346 47.0209 38.7755 47.3958 38.8014 47.7866V50.7551C38.7764 51.1459 38.6382 51.5216 38.4029 51.838C38.1646 52.157 37.848 52.4117 37.4825 52.5784C37.0787 52.7632 36.6374 52.8555 36.1918 52.8483ZM36.6538 50.8831C36.8646 50.8914 37.0747 50.8552 37.2699 50.777C37.4652 50.6989 37.6411 50.5805 37.7858 50.4299C38.0761 50.1073 38.2278 49.6869 38.209 49.257C38.2139 48.9707 38.1499 48.6874 38.0221 48.4301C37.9008 48.1932 37.7105 47.9969 37.4755 47.8661C37.2254 47.7264 36.9415 47.6559 36.6538 47.662C36.3729 47.6563 36.0958 47.727 35.8533 47.8661C35.6162 48.0019 35.4221 48.1995 35.2926 48.437C35.156 48.6945 35.0847 48.9805 35.0847 49.2708C35.0847 49.5611 35.156 49.8471 35.2926 50.1046C35.4229 50.3425 35.6167 50.541 35.8533 50.679C36.0965 50.8166 36.3731 50.8872 36.6538 50.8831ZM38.1243 52.7064V50.8589L38.4558 49.1774L38.1243 47.5236V45.8421H40.3001V52.7099L38.1243 52.7064Z" fill="#4DA747"/>
<path d="M1.64318 57.9833C1.68933 58.0276 1.74484 58.0614 1.80578 58.0823C1.86671 58.1032 1.93159 58.1107 1.99582 58.1044H2.10867C2.13335 58.1044 2.14746 58.1044 2.15451 58.1251C2.15881 58.1375 2.15881 58.1508 2.15451 58.1632V58.7271C2.15881 58.7395 2.15881 58.7529 2.15451 58.7652C2.15451 58.7652 2.13335 58.7859 2.10867 58.7859H1.75602C1.61612 58.7946 1.47602 58.7723 1.34604 58.7208C1.21605 58.6693 1.09948 58.5899 1.0049 58.4884C0.820951 58.2638 0.728024 57.9804 0.74394 57.6926V54.4404H1.53033V57.5543C1.51406 57.7059 1.55413 57.8583 1.64318 57.9833Z" fill="#EBC82A"/>
<path d="M2.88814 58.1245C2.89244 58.1369 2.89244 58.1503 2.88814 58.1626V58.7265C2.89244 58.7389 2.89244 58.7523 2.88814 58.7646C2.88814 58.7646 2.86698 58.7854 2.84229 58.7854H2.09117C2.08233 58.7863 2.0734 58.7848 2.06533 58.7812C2.05727 58.7775 2.05035 58.7718 2.04532 58.7646C2.04218 58.7521 2.04218 58.739 2.04532 58.7265V58.1626C2.04218 58.1501 2.04218 58.137 2.04532 58.1245C2.05035 58.1173 2.05727 58.1116 2.06533 58.108C2.0734 58.1043 2.08233 58.1029 2.09117 58.1038H2.84229C2.86698 58.1038 2.88108 58.1245 2.88814 58.1245Z" fill="#EBC82A"/>
<path d="M3.63911 58.1245C3.64341 58.1369 3.64341 58.1503 3.63911 58.1626V58.7265C3.64341 58.7389 3.64341 58.7523 3.63911 58.7646C3.63911 58.7646 3.61796 58.7854 3.59327 58.7854H2.84214C2.8333 58.7863 2.82438 58.7848 2.81631 58.7812C2.80824 58.7775 2.80133 58.7718 2.7963 58.7646C2.79316 58.7521 2.79316 58.739 2.7963 58.7265V58.1626C2.79316 58.1501 2.79316 58.137 2.7963 58.1245C2.80133 58.1173 2.80824 58.1116 2.81631 58.108C2.82438 58.1043 2.8333 58.1029 2.84214 58.1038H3.59327C3.61796 58.1038 3.63206 58.1245 3.63911 58.1245Z" fill="#EBC82A"/>
<path d="M4.39411 58.1245C4.39724 58.137 4.39724 58.1501 4.39411 58.1626V58.7265C4.39724 58.739 4.39724 58.7521 4.39411 58.7646C4.38828 58.7718 4.38072 58.7775 4.3721 58.7811C4.36348 58.7847 4.35407 58.7862 4.34474 58.7854H3.59361C3.58477 58.7863 3.57584 58.7848 3.56778 58.7812C3.55971 58.7775 3.55279 58.7718 3.54776 58.7646C3.54463 58.7521 3.54463 58.739 3.54776 58.7265V58.1626C3.54463 58.1501 3.54463 58.137 3.54776 58.1245C3.55279 58.1173 3.55971 58.1116 3.56778 58.108C3.57584 58.1043 3.58477 58.1029 3.59361 58.1038H4.34474C4.35407 58.1029 4.36348 58.1044 4.3721 58.108C4.38072 58.1116 4.38828 58.1173 4.39411 58.1245Z" fill="#EBC82A"/>
<path d="M5.14508 58.1245C5.14822 58.137 5.14822 58.1501 5.14508 58.1626V58.7265C5.14822 58.739 5.14822 58.7521 5.14508 58.7646C5.13926 58.7718 5.1317 58.7775 5.12308 58.7811C5.11446 58.7847 5.10505 58.7862 5.09571 58.7853H4.34458C4.33578 58.7859 4.32698 58.7843 4.31897 58.7807C4.31097 58.777 4.30401 58.7715 4.29874 58.7646C4.2956 58.7521 4.2956 58.739 4.29874 58.7265V58.1626C4.2956 58.1501 4.2956 58.137 4.29874 58.1245C4.30401 58.1176 4.31097 58.112 4.31897 58.1084C4.32698 58.1048 4.33578 58.1032 4.34458 58.1037H5.09571C5.10505 58.1029 5.11446 58.1044 5.12308 58.108C5.1317 58.1116 5.13926 58.1173 5.14508 58.1245Z" fill="#EBC82A"/>
<path d="M5.89606 58.1244C5.8992 58.1369 5.8992 58.1499 5.89606 58.1624V58.7264C5.8992 58.7389 5.8992 58.752 5.89606 58.7645C5.89079 58.7714 5.88383 58.7769 5.87582 58.7805C5.86782 58.7842 5.85901 58.7858 5.85022 58.7852H5.09556C5.08676 58.7858 5.07796 58.7842 5.06995 58.7805C5.06194 58.7769 5.05499 58.7714 5.04972 58.7645C5.04658 58.752 5.04658 58.7389 5.04972 58.7264V58.1624C5.04658 58.1499 5.04658 58.1369 5.04972 58.1244C5.05499 58.1174 5.06194 58.1119 5.06995 58.1083C5.07796 58.1047 5.08676 58.1031 5.09556 58.1036H5.85022C5.85901 58.1031 5.86782 58.1047 5.87582 58.1083C5.88383 58.1119 5.89079 58.1174 5.89606 58.1244Z" fill="#EBC82A"/>
<path d="M6.64752 58.1245C6.65066 58.137 6.65066 58.1501 6.64752 58.1626V58.7265C6.65066 58.739 6.65066 58.7521 6.64752 58.7646C6.64249 58.7718 6.63558 58.7775 6.62751 58.7812C6.61944 58.7848 6.61052 58.7863 6.60168 58.7854H5.85055C5.84121 58.7862 5.83181 58.7847 5.82319 58.7811C5.81457 58.7775 5.807 58.7718 5.80118 58.7646C5.79804 58.7521 5.79804 58.739 5.80118 58.7265V58.1626C5.79804 58.1501 5.79804 58.137 5.80118 58.1245C5.807 58.1173 5.81457 58.1116 5.82319 58.108C5.83181 58.1044 5.84121 58.1029 5.85055 58.1038H6.60168C6.61052 58.1029 6.61944 58.1043 6.62751 58.108C6.63558 58.1116 6.64249 58.1173 6.64752 58.1245Z" fill="#EBC82A"/>
<path d="M7.40555 58.1246C7.40869 58.1371 7.40869 58.1502 7.40555 58.1627V58.7266C7.40869 58.7391 7.40869 58.7522 7.40555 58.7647C7.40052 58.7719 7.39361 58.7776 7.38554 58.7813C7.37747 58.7849 7.36855 58.7864 7.35971 58.7854H6.60153C6.59219 58.7863 6.58278 58.7848 6.57416 58.7812C6.56554 58.7776 6.55798 58.7719 6.55216 58.7647C6.54902 58.7522 6.54902 58.7391 6.55216 58.7266V58.1627C6.54902 58.1502 6.54902 58.1371 6.55216 58.1246C6.55798 58.1174 6.56554 58.1117 6.57416 58.1081C6.58278 58.1045 6.59219 58.103 6.60153 58.1039H7.35266C7.36258 58.1015 7.37299 58.1023 7.38246 58.106C7.39194 58.1097 7.4 58.1162 7.40555 58.1246Z" fill="#EBC82A"/>
<path d="M8.14975 58.1253C8.15289 58.1377 8.15289 58.1508 8.14975 58.1633V58.7273C8.15289 58.7398 8.15289 58.7528 8.14975 58.7653C8.14472 58.7725 8.13781 58.7782 8.12974 58.7819C8.12167 58.7855 8.11275 58.787 8.10391 58.7861H7.35278C7.32809 58.7861 7.31399 58.7861 7.30694 58.7653C7.30264 58.753 7.30264 58.7396 7.30694 58.7273V58.1633C7.30264 58.151 7.30264 58.1376 7.30694 58.1253C7.30694 58.1253 7.32809 58.1045 7.35278 58.1045H8.11096C8.11863 58.1048 8.12612 58.1068 8.13286 58.1104C8.13959 58.114 8.14537 58.1191 8.14975 58.1253Z" fill="#EBC82A"/>
<path d="M8.90051 58.1253C8.90365 58.1377 8.90365 58.1508 8.90051 58.1633V58.7273C8.90365 58.7398 8.90365 58.7528 8.90051 58.7653C8.89548 58.7725 8.88857 58.7782 8.8805 58.7819C8.87243 58.7855 8.86351 58.787 8.85467 58.7861H8.11059C8.08591 58.7861 8.0718 58.7861 8.06475 58.7653C8.06045 58.753 8.06045 58.7396 8.06475 58.7273V58.1633C8.06045 58.151 8.06045 58.1376 8.06475 58.1253C8.06475 58.1253 8.08591 58.1045 8.11059 58.1045H8.86172C8.86938 58.1048 8.87688 58.1068 8.88361 58.1104C8.89035 58.114 8.89613 58.1191 8.90051 58.1253Z" fill="#EBC82A"/>
<path d="M9.6517 58.1245C9.65484 58.137 9.65484 58.1501 9.6517 58.1626V58.7265C9.65484 58.739 9.65484 58.7521 9.6517 58.7646C9.64667 58.7718 9.63976 58.7775 9.63169 58.7812C9.62362 58.7848 9.6147 58.7863 9.60586 58.7854H8.85473C8.83005 58.7854 8.81594 58.7854 8.80889 58.7646C8.80459 58.7523 8.80459 58.7389 8.80889 58.7265V58.1626C8.80459 58.1503 8.80459 58.1369 8.80889 58.1245C8.80889 58.1245 8.83005 58.1038 8.85473 58.1038H9.60586C9.6147 58.1029 9.62362 58.1043 9.63169 58.108C9.63976 58.1116 9.64667 58.1173 9.6517 58.1245Z" fill="#EBC82A"/>
<path d="M10.4032 58.1245C10.4063 58.137 10.4063 58.1501 10.4032 58.1626V58.7265C10.4063 58.739 10.4063 58.7521 10.4032 58.7646C10.3981 58.7718 10.3912 58.7775 10.3832 58.7812C10.3751 58.7848 10.3662 58.7863 10.3573 58.7854H9.6062C9.58151 58.7854 9.56741 58.7854 9.56035 58.7646C9.55605 58.7523 9.55605 58.7389 9.56035 58.7265V58.1626C9.55605 58.1503 9.55605 58.1369 9.56035 58.1245C9.56035 58.1245 9.58151 58.1038 9.6062 58.1038H10.3573C10.3662 58.1029 10.3751 58.1043 10.3832 58.108C10.3912 58.1116 10.3981 58.1173 10.4032 58.1245Z" fill="#EBC82A"/>
<path d="M11.1541 58.1245C11.1572 58.137 11.1572 58.1501 11.1541 58.1626V58.7265C11.1572 58.739 11.1572 58.7521 11.1541 58.7646C11.149 58.7718 11.1421 58.7775 11.134 58.7812C11.126 58.7848 11.1171 58.7863 11.1082 58.7854H10.3571C10.3324 58.7854 10.3183 58.7854 10.3112 58.7646C10.3084 58.7521 10.3084 58.7391 10.3112 58.7265V58.1626C10.3084 58.1501 10.3084 58.1371 10.3112 58.1245C10.3112 58.1245 10.3324 58.1038 10.3571 58.1038H11.1082C11.1171 58.1029 11.126 58.1043 11.134 58.108C11.1421 58.1116 11.149 58.1173 11.1541 58.1245Z" fill="#EBC82A"/>
<path d="M11.905 58.1245C11.9082 58.137 11.9082 58.1501 11.905 58.1626V58.7265C11.9082 58.739 11.9082 58.7521 11.905 58.7646C11.9 58.7718 11.8931 58.7775 11.885 58.7812C11.877 58.7848 11.868 58.7863 11.8592 58.7854H11.1081C11.0834 58.7854 11.0693 58.7854 11.0622 58.7646C11.0593 58.7521 11.0593 58.7391 11.0622 58.7265V58.1626C11.0593 58.1501 11.0593 58.1371 11.0622 58.1245C11.0622 58.1245 11.0834 58.1038 11.1081 58.1038H11.8592C11.868 58.1029 11.877 58.1043 11.885 58.108C11.8931 58.1116 11.9 58.1173 11.905 58.1245Z" fill="#EBC82A"/>
<path d="M12.6565 58.1245C12.6596 58.137 12.6596 58.1501 12.6565 58.1626V58.7265C12.6596 58.739 12.6596 58.7521 12.6565 58.7646C12.6515 58.7718 12.6446 58.7775 12.6365 58.7812C12.6284 58.7848 12.6195 58.7863 12.6107 58.7854H11.8595C11.8348 58.7854 11.8207 58.7854 11.8137 58.7646C11.8108 58.7521 11.8108 58.7391 11.8137 58.7265V58.1626C11.8108 58.1501 11.8108 58.1371 11.8137 58.1245C11.8137 58.1245 11.8348 58.1038 11.8595 58.1038H12.6107C12.6195 58.1029 12.6284 58.1043 12.6365 58.108C12.6446 58.1116 12.6515 58.1173 12.6565 58.1245Z" fill="#EBC82A"/>
<path d="M13.4006 58.1253C13.4038 58.1377 13.4038 58.1508 13.4006 58.1633V58.7273C13.4038 58.7398 13.4038 58.7528 13.4006 58.7653C13.4006 58.7653 13.3795 58.7861 13.3548 58.7861H12.6107C12.586 58.7861 12.5719 58.7861 12.5649 58.7653C12.5617 58.7528 12.5617 58.7398 12.5649 58.7273V58.1633C12.5617 58.1508 12.5617 58.1377 12.5649 58.1253C12.5649 58.1253 12.586 58.1045 12.6107 58.1045H13.3618C13.4006 58.1045 13.4006 58.1253 13.4006 58.1253Z" fill="#EBC82A"/>
<path d="M14.1586 58.1253C14.1618 58.1377 14.1618 58.1508 14.1586 58.1633V58.7273C14.1618 58.7398 14.1618 58.7528 14.1586 58.7653C14.1586 58.7653 14.1375 58.7861 14.1128 58.7861H13.3617C13.337 58.7861 13.3229 58.7861 13.3158 58.7653C13.3127 58.7528 13.3127 58.7398 13.3158 58.7273V58.1633C13.3127 58.1508 13.3127 58.1377 13.3158 58.1253C13.3158 58.1253 13.337 58.1045 13.3617 58.1045H14.1057C14.1375 58.1045 14.1516 58.1253 14.1586 58.1253Z" fill="#EBC82A"/>
<path d="M14.9098 58.1253C14.913 58.1377 14.913 58.1508 14.9098 58.1633V58.7273C14.913 58.7398 14.913 58.7528 14.9098 58.7653C14.9098 58.7653 14.8887 58.7861 14.864 58.7861H14.1058C14.0811 58.7861 14.067 58.7861 14.06 58.7653C14.0568 58.7528 14.0568 58.7398 14.06 58.7273V58.1633C14.0568 58.1508 14.0568 58.1377 14.06 58.1253C14.06 58.1253 14.0811 58.1045 14.1058 58.1045H14.8569C14.8887 58.1045 14.9028 58.1253 14.9098 58.1253Z" fill="#EBC82A"/>
<path d="M15.6611 58.1253C15.6642 58.1377 15.6642 58.1508 15.6611 58.1633V58.7273C15.6642 58.7398 15.6642 58.7528 15.6611 58.7653C15.6611 58.7653 15.6399 58.7861 15.6152 58.7861H14.8641C14.8394 58.7861 14.8253 58.7861 14.8183 58.7653C14.8151 58.7528 14.8151 58.7398 14.8183 58.7273V58.1633C14.8151 58.1508 14.8151 58.1377 14.8183 58.1253C14.8183 58.1253 14.8394 58.1045 14.8641 58.1045H15.6152C15.6399 58.1045 15.654 58.1253 15.6611 58.1253Z" fill="#EBC82A"/>
<path d="M16.4121 58.1245C16.4149 58.1371 16.4149 58.1501 16.4121 58.1626V58.7265C16.4149 58.7391 16.4149 58.7521 16.4121 58.7646C16.4121 58.7646 16.3909 58.7854 16.3662 58.7854H15.6151C15.6063 58.7863 15.5973 58.7848 15.5893 58.7812C15.5812 58.7775 15.5743 58.7718 15.5692 58.7646C15.5661 58.7521 15.5661 58.739 15.5692 58.7265V58.1626C15.5661 58.1501 15.5661 58.137 15.5692 58.1245C15.5743 58.1173 15.5812 58.1116 15.5893 58.108C15.5973 58.1043 15.6063 58.1029 15.6151 58.1038H16.3662C16.3909 58.1038 16.405 58.1245 16.4121 58.1245Z" fill="#EBC82A"/>
<path d="M17.163 58.1245C17.1659 58.1371 17.1659 58.1501 17.163 58.1626V58.7265C17.1659 58.7391 17.1659 58.7521 17.163 58.7646C17.163 58.7646 17.1419 58.7854 17.1172 58.7854H16.3661C16.3572 58.7863 16.3483 58.7848 16.3402 58.7812C16.3322 58.7775 16.3253 58.7718 16.3202 58.7646C16.3171 58.7521 16.3171 58.739 16.3202 58.7265V58.1626C16.3171 58.1501 16.3171 58.137 16.3202 58.1245C16.3253 58.1173 16.3322 58.1116 16.3402 58.108C16.3483 58.1043 16.3572 58.1029 16.3661 58.1038H17.1172C17.1419 58.1038 17.156 58.1245 17.163 58.1245Z" fill="#EBC82A"/>
<path d="M17.914 58.1245C17.9183 58.1369 17.9183 58.1503 17.914 58.1626V58.7265C17.9183 58.7389 17.9183 58.7523 17.914 58.7646C17.914 58.7646 17.8929 58.7854 17.8682 58.7854H17.117C17.1082 58.7863 17.0993 58.7848 17.0912 58.7812C17.0831 58.7775 17.0762 58.7718 17.0712 58.7646C17.0681 58.7521 17.0681 58.739 17.0712 58.7265V58.1626C17.0681 58.1501 17.0681 58.137 17.0712 58.1245C17.0762 58.1173 17.0831 58.1116 17.0912 58.108C17.0993 58.1043 17.1082 58.1029 17.117 58.1038H17.8682C17.8929 58.1038 17.907 58.1245 17.914 58.1245Z" fill="#EBC82A"/>
<path d="M18.6655 58.1245C18.6698 58.1369 18.6698 58.1503 18.6655 58.1626V58.7265C18.6698 58.7389 18.6698 58.7523 18.6655 58.7646C18.6655 58.7646 18.6443 58.7854 18.6196 58.7854H17.8685C17.8597 58.7863 17.8507 58.7848 17.8427 58.7812C17.8346 58.7775 17.8277 58.7718 17.8227 58.7646C17.8195 58.7521 17.8195 58.739 17.8227 58.7265V58.1626C17.8195 58.1501 17.8195 58.137 17.8227 58.1245C17.8277 58.1173 17.8346 58.1116 17.8427 58.108C17.8507 58.1043 17.8597 58.1029 17.8685 58.1038H18.6196C18.6443 58.1038 18.6584 58.1245 18.6655 58.1245Z" fill="#EBC82A"/>
<path d="M19.4165 58.1245C19.4208 58.1369 19.4208 58.1503 19.4165 58.1626V58.7265C19.4208 58.7389 19.4208 58.7523 19.4165 58.7646C19.4165 58.7646 19.3953 58.7854 19.3706 58.7854H18.6195C18.6106 58.7863 18.6017 58.7848 18.5937 58.7812C18.5856 58.7775 18.5787 58.7718 18.5736 58.7646C18.5705 58.7521 18.5705 58.739 18.5736 58.7265V58.1626C18.5705 58.1501 18.5705 58.137 18.5736 58.1245C18.5787 58.1173 18.5856 58.1116 18.5937 58.108C18.6017 58.1043 18.6106 58.1029 18.6195 58.1038H19.3706C19.3953 58.1038 19.3953 58.1245 19.4165 58.1245Z" fill="#EBC82A"/>
<path d="M20.171 58.1245C20.1741 58.137 20.1741 58.1501 20.171 58.1626V58.7265C20.1741 58.739 20.1741 58.7521 20.171 58.7646C20.1651 58.7718 20.1576 58.7775 20.149 58.7811C20.1403 58.7847 20.1309 58.7862 20.1216 58.7854H19.3705C19.3616 58.7863 19.3527 58.7848 19.3446 58.7812C19.3366 58.7775 19.3296 58.7718 19.3246 58.7646C19.3215 58.7521 19.3215 58.739 19.3246 58.7265V58.1626C19.3215 58.1501 19.3215 58.137 19.3246 58.1245C19.3296 58.1173 19.3366 58.1116 19.3446 58.108C19.3527 58.1043 19.3616 58.1029 19.3705 58.1038H20.1216C20.1309 58.1029 20.1403 58.1044 20.149 58.108C20.1576 58.1116 20.1651 58.1173 20.171 58.1245Z" fill="#EBC82A"/>
<path d="M20.9189 58.1245C20.9232 58.1369 20.9232 58.1503 20.9189 58.1626V58.7265C20.9232 58.7389 20.9232 58.7523 20.9189 58.7646C20.9189 58.7646 20.8977 58.7854 20.8731 58.7854H20.1219C20.1131 58.7863 20.1042 58.7848 20.0961 58.7812C20.088 58.7775 20.0811 58.7718 20.0761 58.7646C20.0729 58.7521 20.0729 58.739 20.0761 58.7265V58.1626C20.0729 58.1501 20.0729 58.137 20.0761 58.1245C20.0811 58.1173 20.088 58.1116 20.0961 58.108C20.1042 58.1043 20.1131 58.1029 20.1219 58.1038H20.8731C20.8977 58.1038 20.9118 58.1245 20.9189 58.1245Z" fill="#EBC82A"/>
<path d="M21.6734 58.1245C21.6765 58.137 21.6765 58.1501 21.6734 58.1626V58.7265C21.6765 58.739 21.6765 58.7521 21.6734 58.7646C21.6676 58.7718 21.66 58.7775 21.6514 58.7811C21.6428 58.7847 21.6334 58.7862 21.624 58.7853H20.8729C20.8641 58.7859 20.8553 58.7843 20.8473 58.7807C20.8393 58.777 20.8323 58.7715 20.8271 58.7646C20.8239 58.7521 20.8239 58.739 20.8271 58.7265V58.1626C20.8239 58.1501 20.8239 58.137 20.8271 58.1245C20.8323 58.1176 20.8393 58.112 20.8473 58.1084C20.8553 58.1048 20.8641 58.1032 20.8729 58.1037H21.624C21.6334 58.1029 21.6428 58.1044 21.6514 58.108C21.66 58.1116 21.6676 58.1173 21.6734 58.1245Z" fill="#EBC82A"/>
<path d="M22.4244 58.1245C22.4275 58.137 22.4275 58.1501 22.4244 58.1626V58.7265C22.4275 58.739 22.4275 58.7521 22.4244 58.7646C22.4186 58.7718 22.411 58.7775 22.4024 58.7811C22.3938 58.7847 22.3843 58.7862 22.375 58.7853H21.6239C21.6151 58.7859 21.6063 58.7843 21.5983 58.7807C21.5903 58.777 21.5833 58.7715 21.578 58.7646C21.5749 58.7521 21.5749 58.739 21.578 58.7265V58.1626C21.5749 58.1501 21.5749 58.137 21.578 58.1245C21.5833 58.1176 21.5903 58.112 21.5983 58.1084C21.6063 58.1048 21.6151 58.1032 21.6239 58.1037H22.375C22.3843 58.1029 22.3938 58.1044 22.4024 58.108C22.411 58.1116 22.4186 58.1173 22.4244 58.1245Z" fill="#EBC82A"/>
<path d="M23.1758 58.1244C23.179 58.1369 23.179 58.1499 23.1758 58.1624V58.7264C23.179 58.7389 23.179 58.752 23.1758 58.7645C23.1706 58.7714 23.1636 58.7769 23.1556 58.7805C23.1476 58.7842 23.1388 58.7858 23.13 58.7852H22.3753C22.3665 58.7858 22.3577 58.7842 22.3497 58.7805C22.3417 58.7769 22.3348 58.7714 22.3295 58.7645C22.3264 58.752 22.3264 58.7389 22.3295 58.7264V58.1624C22.3264 58.1499 22.3264 58.1369 22.3295 58.1244C22.3348 58.1174 22.3417 58.1119 22.3497 58.1083C22.3577 58.1047 22.3665 58.1031 22.3753 58.1036H23.13C23.1388 58.1031 23.1476 58.1047 23.1556 58.1083C23.1636 58.1119 23.1706 58.1174 23.1758 58.1244Z" fill="#EBC82A"/>
<path d="M23.9268 58.1245C23.93 58.137 23.93 58.1501 23.9268 58.1626V58.7265C23.93 58.739 23.93 58.7521 23.9268 58.7646C23.9218 58.7718 23.9149 58.7775 23.9068 58.7812C23.8987 58.7848 23.8898 58.7863 23.881 58.7854H23.1298C23.1205 58.7862 23.1111 58.7847 23.1025 58.7811C23.0939 58.7775 23.0863 58.7718 23.0805 58.7646C23.0773 58.7521 23.0773 58.739 23.0805 58.7265V58.1626C23.0773 58.1501 23.0773 58.137 23.0805 58.1245C23.0863 58.1173 23.0939 58.1116 23.1025 58.108C23.1111 58.1044 23.1205 58.1029 23.1298 58.1038H23.881C23.8898 58.1029 23.8987 58.1043 23.9068 58.108C23.9149 58.1116 23.9218 58.1173 23.9268 58.1245Z" fill="#EBC82A"/>
<path d="M24.6848 58.1246C24.688 58.1371 24.688 58.1502 24.6848 58.1627V58.7266C24.688 58.7391 24.688 58.7522 24.6848 58.7647C24.6798 58.7719 24.6729 58.7776 24.6648 58.7813C24.6568 58.7849 24.6478 58.7864 24.639 58.7854H23.8808C23.8715 58.7863 23.8621 58.7848 23.8535 58.7812C23.8448 58.7776 23.8373 58.7719 23.8315 58.7647C23.8283 58.7522 23.8283 58.7391 23.8315 58.7266V58.1627C23.8283 58.1502 23.8283 58.1371 23.8315 58.1246C23.8373 58.1174 23.8448 58.1117 23.8535 58.1081C23.8621 58.1045 23.8715 58.103 23.8808 58.1039H24.632C24.6419 58.1015 24.6523 58.1023 24.6618 58.106C24.6712 58.1097 24.6793 58.1162 24.6848 58.1246Z" fill="#EBC82A"/>
<path d="M25.429 58.1253C25.4322 58.1377 25.4322 58.1508 25.429 58.1633V58.7273C25.4322 58.7398 25.4322 58.7528 25.429 58.7653C25.424 58.7725 25.4171 58.7782 25.409 58.7819C25.401 58.7855 25.392 58.787 25.3832 58.7861H24.6321C24.6074 58.7861 24.5933 58.7861 24.5862 58.7653C24.5819 58.753 24.5819 58.7396 24.5862 58.7273V58.1633C24.5819 58.151 24.5819 58.1376 24.5862 58.1253C24.5862 58.1253 24.6074 58.1045 24.6321 58.1045H25.3903C25.3979 58.1048 25.4054 58.1068 25.4122 58.1104C25.4189 58.114 25.4247 58.1191 25.429 58.1253Z" fill="#EBC82A"/>
<path d="M26.1803 58.1253C26.1834 58.1377 26.1834 58.1508 26.1803 58.1633V58.7273C26.1834 58.7398 26.1834 58.7528 26.1803 58.7653C26.1753 58.7725 26.1684 58.7782 26.1603 58.7819C26.1522 58.7855 26.1433 58.787 26.1345 58.7861H25.3904C25.3657 58.7861 25.3516 58.7861 25.3445 58.7653C25.3402 58.753 25.3402 58.7396 25.3445 58.7273V58.1633C25.3402 58.151 25.3402 58.1376 25.3445 58.1253C25.3445 58.1253 25.3657 58.1045 25.3904 58.1045H26.1415C26.1492 58.1048 26.1567 58.1068 26.1634 58.1104C26.1701 58.114 26.1759 58.1191 26.1803 58.1253Z" fill="#EBC82A"/>
<path d="M26.9315 58.1245C26.9346 58.137 26.9346 58.1501 26.9315 58.1626V58.7265C26.9346 58.739 26.9346 58.7521 26.9315 58.7646C26.9265 58.7718 26.9195 58.7775 26.9115 58.7812C26.9034 58.7848 26.8945 58.7863 26.8856 58.7854H26.1345C26.1098 58.7854 26.0957 58.7854 26.0887 58.7646C26.0844 58.7523 26.0844 58.7389 26.0887 58.7265V58.1626C26.0844 58.1503 26.0844 58.1369 26.0887 58.1245C26.0887 58.1245 26.1098 58.1038 26.1345 58.1038H26.8856C26.8945 58.1029 26.9034 58.1043 26.9115 58.108C26.9195 58.1116 26.9265 58.1173 26.9315 58.1245Z" fill="#EBC82A"/>
<path d="M27.6825 58.1245C27.6856 58.137 27.6856 58.1501 27.6825 58.1626V58.7265C27.6856 58.739 27.6856 58.7521 27.6825 58.7646C27.6774 58.7718 27.6705 58.7775 27.6625 58.7812C27.6544 58.7848 27.6455 58.7863 27.6366 58.7854H26.8855C26.8608 58.7854 26.8467 58.7854 26.8396 58.7646C26.8354 58.7523 26.8354 58.7389 26.8396 58.7265V58.1626C26.8354 58.1503 26.8354 58.1369 26.8396 58.1245C26.8396 58.1245 26.8608 58.1038 26.8855 58.1038H27.6366C27.6455 58.1029 27.6544 58.1043 27.6625 58.108C27.6705 58.1116 27.6774 58.1173 27.6825 58.1245Z" fill="#EBC82A"/>
<path d="M28.4334 58.1245C28.4365 58.137 28.4365 58.1501 28.4334 58.1626V58.7265C28.4365 58.739 28.4365 58.7521 28.4334 58.7646C28.4283 58.7718 28.4214 58.7775 28.4133 58.7812C28.4053 58.7848 28.3963 58.7863 28.3875 58.7854H27.6364C27.6117 58.7854 27.5976 58.7854 27.5905 58.7646C27.5877 58.7521 27.5877 58.7391 27.5905 58.7265V58.1626C27.5877 58.1501 27.5877 58.1371 27.5905 58.1245C27.5905 58.1245 27.6117 58.1038 27.6364 58.1038H28.3875C28.3963 58.1029 28.4053 58.1043 28.4133 58.108C28.4214 58.1116 28.4283 58.1173 28.4334 58.1245Z" fill="#EBC82A"/>
<path d="M29.1848 58.1245C29.188 58.137 29.188 58.1501 29.1848 58.1626V58.7265C29.188 58.739 29.188 58.7521 29.1848 58.7646C29.1798 58.7718 29.1729 58.7775 29.1648 58.7812C29.1567 58.7848 29.1478 58.7863 29.139 58.7854H28.3878C28.3632 58.7854 28.3491 58.7854 28.342 58.7646C28.3391 58.7521 28.3391 58.7391 28.342 58.7265V58.1626C28.3391 58.1501 28.3391 58.1371 28.342 58.1245C28.342 58.1245 28.3632 58.1038 28.3878 58.1038H29.139C29.1478 58.1029 29.1567 58.1043 29.1648 58.108C29.1729 58.1116 29.1798 58.1173 29.1848 58.1245Z" fill="#EBC82A"/>
<path d="M29.936 58.1253C29.9391 58.1377 29.9391 58.1508 29.936 58.1633V58.7273C29.9391 58.7398 29.9391 58.7528 29.936 58.7653C29.936 58.7653 29.9148 58.7861 29.8901 58.7861H29.139C29.1143 58.7861 29.1002 58.7861 29.0932 58.7653C29.09 58.7528 29.09 58.7398 29.0932 58.7273V58.1633C29.09 58.1508 29.09 58.1377 29.0932 58.1253C29.0932 58.1253 29.1143 58.1045 29.139 58.1045H29.8901C29.9148 58.1045 29.9289 58.1253 29.936 58.1253Z" fill="#EBC82A"/>
<path d="M30.6799 58.1253C30.6831 58.1377 30.6831 58.1508 30.6799 58.1633V58.7273C30.6831 58.7398 30.6831 58.7528 30.6799 58.7653C30.6799 58.7653 30.6588 58.7861 30.6341 58.7861H29.89C29.8653 58.7861 29.8512 58.7861 29.8442 58.7653C29.841 58.7528 29.841 58.7398 29.8442 58.7273V58.1633C29.841 58.1508 29.841 58.1377 29.8442 58.1253C29.8442 58.1253 29.8653 58.1045 29.89 58.1045H30.6411C30.6799 58.1045 30.6799 58.1253 30.6799 58.1253Z" fill="#EBC82A"/>
<path d="M31.4379 58.1253C31.4411 58.1377 31.4411 58.1508 31.4379 58.1633V58.7273C31.4411 58.7398 31.4411 58.7528 31.4379 58.7653C31.4379 58.7653 31.4168 58.7861 31.3921 58.7861H30.641C30.6163 58.7861 30.6022 58.7861 30.5951 58.7653C30.592 58.7528 30.592 58.7398 30.5951 58.7273V58.1633C30.592 58.1508 30.592 58.1377 30.5951 58.1253C30.5951 58.1253 30.6163 58.1045 30.641 58.1045H31.385C31.4168 58.1045 31.4309 58.1253 31.4379 58.1253Z" fill="#EBC82A"/>
<path d="M32.8415 57.8927C32.9121 57.9678 32.9995 58.0259 33.0967 58.0625C33.194 58.0991 33.2985 58.1132 33.4022 58.1037C33.4269 58.1037 33.441 58.1037 33.4481 58.1245C33.4524 58.1368 33.4524 58.1502 33.4481 58.1625V58.7265C33.4524 58.7388 33.4524 58.7522 33.4481 58.7645C33.4481 58.7645 33.4269 58.7853 33.4022 58.7853C33.259 58.7812 33.1178 58.7507 32.9861 58.6953C32.8343 58.6324 32.6975 58.5393 32.5841 58.422C32.481 58.5376 32.3526 58.6288 32.2084 58.6887C32.0643 58.7486 31.9082 58.7757 31.7519 58.768H31.3851C31.3604 58.768 31.3463 58.768 31.3393 58.7472C31.3361 58.7348 31.3361 58.7217 31.3393 58.7092V58.1452C31.3361 58.1327 31.3361 58.1197 31.3393 58.1072C31.3393 58.1072 31.3604 58.0864 31.3851 58.0864H31.5015C31.5768 58.0868 31.6512 58.0709 31.7195 58.0398C31.7877 58.0087 31.8482 57.9632 31.8964 57.9065C32.0111 57.7763 32.0705 57.6079 32.0622 57.436V55.9552H32.8697V57.5605C32.8743 57.672 32.8648 57.7835 32.8415 57.8927ZM32.0551 55.4916V54.7754H32.8874V55.4916H32.0551Z" fill="#EBC82A"/>
<path d="M34.8554 57.8926C34.9255 57.9683 35.0127 58.0269 35.1101 58.0636C35.2075 58.1002 35.3123 58.1139 35.4161 58.1036C35.4249 58.1027 35.4338 58.1042 35.4419 58.1078C35.45 58.1115 35.4569 58.1172 35.4619 58.1244C35.465 58.1369 35.465 58.1499 35.4619 58.1624V58.7264C35.465 58.7389 35.465 58.7519 35.4619 58.7644C35.4569 58.7716 35.45 58.7774 35.4419 58.781C35.4338 58.7847 35.4249 58.7861 35.4161 58.7852C35.2728 58.7814 35.1316 58.7509 34.9999 58.6952C34.8471 58.6324 34.7091 58.5393 34.5944 58.4219C34.4913 58.5375 34.3629 58.6287 34.2187 58.6886C34.0746 58.7485 33.9185 58.7756 33.7622 58.7679H33.4095C33.4007 58.7688 33.3918 58.7674 33.3837 58.7637C33.3756 58.7601 33.3687 58.7543 33.3637 58.7471C33.3605 58.7346 33.3605 58.7216 33.3637 58.7091V58.1451C33.3605 58.1326 33.3605 58.1196 33.3637 58.1071C33.3687 58.0999 33.3756 58.0942 33.3837 58.0905C33.3918 58.0869 33.4007 58.0854 33.4095 58.0863H33.5259C33.6012 58.0872 33.6758 58.0715 33.7442 58.0403C33.8125 58.0092 33.8729 57.9634 33.9209 57.9064C34.0372 57.7771 34.0967 57.608 34.0866 57.4359V55.9551H34.8977V57.5604C34.8957 57.6723 34.8815 57.7837 34.8554 57.8926ZM34.0337 59.9996V59.2834H34.8659V59.9996H34.0337Z" fill="#EBC82A"/>
<path d="M37.9688 54.4402C37.9861 54.5117 37.9955 54.5847 37.997 54.6582C38.0022 54.7208 37.9942 54.7838 37.9736 54.8433C37.953 54.9028 37.9202 54.9576 37.8772 55.0042C37.83 55.0469 37.7743 55.0794 37.7136 55.0997C37.6528 55.12 37.5884 55.1275 37.5245 55.1218C37.4749 55.1226 37.426 55.1105 37.3826 55.0868C37.3393 55.0631 37.3031 55.0287 37.2777 54.9869C37.2471 55.0615 37.1958 55.1263 37.1295 55.1737C37.0598 55.2228 36.9756 55.2483 36.8898 55.2463C36.7928 55.2496 36.6978 55.2189 36.6217 55.1598C36.538 55.0911 36.4849 54.9931 36.4736 54.8865L36.4102 54.5682L36.6923 54.5094L36.7522 54.8173C36.7734 54.9211 36.8263 54.9765 36.9109 54.9765C36.9955 54.9765 37.0872 54.8969 37.0872 54.7447C37.0825 54.6444 37.0683 54.5448 37.0449 54.4471L37.3341 54.4091L37.3905 54.7135C37.4117 54.8104 37.4646 54.8554 37.5492 54.8554C37.5715 54.8583 37.5942 54.8561 37.6155 54.849C37.6369 54.8418 37.6562 54.8298 37.6719 54.814C37.6877 54.7982 37.6994 54.779 37.7063 54.758C37.7132 54.7369 37.7149 54.7146 37.7114 54.6928C37.7082 54.5644 37.6807 54.4377 37.6303 54.3191L37.9195 54.2568C37.9371 54.2776 37.9512 54.3433 37.9688 54.4402Z" fill="#EBC82A"/>
<path d="M38.0325 55.9698C38.2577 56.0651 38.457 56.2108 38.6144 56.3953C38.7508 56.5571 38.8267 56.7598 38.8295 56.9697C38.8262 57.1683 38.7703 57.3626 38.6673 57.5336C38.5551 57.7294 38.4068 57.903 38.23 58.0457C38.4811 58.0806 38.7346 58.0956 38.9882 58.0907C39.0376 58.0907 39.0622 58.1114 39.0622 58.1529V58.71C39.0622 58.7515 39.0376 58.7722 38.9882 58.7722C38.4352 58.7814 37.8838 58.7103 37.3519 58.5612C36.7193 58.7103 36.0701 58.7812 35.4195 58.7722C35.4108 58.7734 35.4021 58.7726 35.3938 58.7698C35.3856 58.7671 35.3781 58.7626 35.372 58.7565C35.3659 58.7505 35.3612 58.7432 35.3584 58.7351C35.3557 58.727 35.3548 58.7184 35.356 58.71V58.1529C35.3548 58.1445 35.3557 58.1359 35.3584 58.1278C35.3612 58.1197 35.3659 58.1124 35.372 58.1064C35.3781 58.1003 35.3856 58.0958 35.3938 58.0931C35.4021 58.0903 35.4108 58.0895 35.4195 58.0907C35.7507 58.0975 36.082 58.079 36.4104 58.0353C36.1163 57.6826 35.851 57.3078 35.6169 56.9143L35.7968 56.1774C36.0504 56.0683 36.3107 55.9747 36.5761 55.8971C36.7987 55.8351 37.0289 55.8037 37.2602 55.8037C37.527 55.803 37.7906 55.8597 38.0325 55.9698ZM36.3504 56.7898C36.4687 57.0123 36.6067 57.2242 36.763 57.4229C36.9144 57.6236 37.0844 57.8101 37.2708 57.9799C37.4687 57.8878 37.6479 57.7612 37.7998 57.6063C37.9357 57.4811 38.0156 57.3082 38.022 57.1254C38.0224 57.043 38.0009 56.9619 37.9594 56.8903C37.918 56.8186 37.858 56.7589 37.7857 56.7171C37.6115 56.614 37.4107 56.5623 37.2074 56.5683C36.9091 56.583 36.6173 56.6584 36.3504 56.7898Z" fill="#EBC82A"/>
<path d="M39.0023 58.7859C38.9935 58.7865 38.9847 58.7849 38.9767 58.7813C38.9687 58.7777 38.9617 58.7721 38.9565 58.7652C38.9533 58.7527 38.9533 58.7396 38.9565 58.7271V58.1632C38.9533 58.1507 38.9533 58.1376 38.9565 58.1251C38.9617 58.1182 38.9687 58.1127 38.9767 58.109C38.9847 58.1054 38.9935 58.1038 39.0023 58.1044H39.5806V54.4404H40.3847V58.7859H39.0023Z" fill="#EBC82A"/>
</g>
<defs>
<clipPath id="clip0_188_535">
<rect width="40.3846" height="60" fill="white"/>
</clipPath>
</defs>
</svg>
