<svg width="35" height="35" viewBox="0 0 35 35" fill="none" xmlns="http://www.w3.org/2000/svg">
<g clip-path="url(#clip0_1294_28150)">
<path d="M32.2656 0H22.4219L8.20306 20.7812H18.0468L32.2656 0Z" fill="#BF392C"/>
<path d="M2.73438 0H12.5781L26.7968 20.7812H16.9531L2.73438 0Z" fill="#E2574C"/>
<path d="M18.0469 10.9375C24.7187 10.9375 30.0781 16.2969 30.0781 22.9688C30.0781 29.6406 24.7187 35 18.0469 35C11.375 35 6.01562 29.6406 6.01562 22.9688C6.01562 16.2969 11.375 10.9375 18.0469 10.9375Z" fill="#ED9D5D"/>
<path d="M18.0468 14.2188C13.2344 14.2188 9.29681 18.1562 9.29681 22.9688C9.29681 27.7814 13.2343 31.7188 18.0468 31.7188C22.8594 31.7188 26.7969 27.7814 26.7969 22.9688C26.7969 18.1562 22.8593 14.2188 18.0468 14.2188ZM18.0468 29.5312C14.4374 29.5312 11.4844 26.5781 11.4844 22.9688C11.4844 19.3595 14.4376 16.4063 18.0468 16.4063C21.6561 16.4063 24.6093 19.3595 24.6093 22.9688C24.6093 26.5781 21.6561 29.5312 18.0468 29.5312Z" fill="#D58D54"/>
</g>
<defs>
<clipPath id="clip0_1294_28150">
<rect width="35" height="35" fill="white"/>
</clipPath>
</defs>
</svg>
