<svg width="18" height="18" viewBox="0 0 18 18" fill="none" xmlns="http://www.w3.org/2000/svg">
<path d="M6 1.5V3.75" stroke="#959595" stroke-miterlimit="10" stroke-linecap="round" stroke-linejoin="round"/>
<path d="M12 1.5V3.75" stroke="#959595" stroke-miterlimit="10" stroke-linecap="round" stroke-linejoin="round"/>
<path d="M2.625 6.81738H15.375" stroke="#959595" stroke-miterlimit="10" stroke-linecap="round" stroke-linejoin="round"/>
<path d="M14.4073 11.8272L11.7523 14.4822C11.6473 14.5872 11.5498 14.7822 11.5273 14.9247L11.3848 15.9372C11.3323 16.3047 11.5873 16.5597 11.9548 16.5072L12.9673 16.3647C13.1098 16.3422 13.3123 16.2447 13.4098 16.1397L16.0648 13.4847C16.5223 13.0272 16.7398 12.4947 16.0648 11.8197C15.3973 11.1522 14.8648 11.3697 14.4073 11.8272Z" stroke="#959595" stroke-miterlimit="10" stroke-linecap="round" stroke-linejoin="round"/>
<path d="M14.0249 12.21C14.2499 13.02 14.8799 13.65 15.6899 13.875" stroke="#959595" stroke-miterlimit="10" stroke-linecap="round" stroke-linejoin="round"/>
<path d="M9 16.5H6C3.375 16.5 2.25 15 2.25 12.75V6.375C2.25 4.125 3.375 2.625 6 2.625H12C14.625 2.625 15.75 4.125 15.75 6.375V9" stroke="#959595" stroke-miterlimit="10" stroke-linecap="round" stroke-linejoin="round"/>
<path d="M8.99686 10.2754H9.00359" stroke="#959595" stroke-linecap="round" stroke-linejoin="round"/>
<path d="M6.22049 10.2754H6.22723" stroke="#959595" stroke-linecap="round" stroke-linejoin="round"/>
<path d="M6.22049 12.5254H6.22723" stroke="#959595" stroke-linecap="round" stroke-linejoin="round"/>
</svg>
