<svg width="16" height="16" viewBox="0 0 16 16" fill="none" xmlns="http://www.w3.org/2000/svg">
<path d="M15.7956 9.38522L14.813 8.62844L15.0859 8.38259C15.3276 8.16487 15.3193 7.74585 15.0678 7.54106L6.05436 0.200367C5.64951 -0.12939 5.08739 -0.0436819 4.77464 0.395325L1.81241 4.55336C1.47553 5.02634 1.56057 5.72325 1.99844 6.07591L4.25032 7.88946L3.34626 9.33796C3.19663 9.57771 3.24873 9.90916 3.46216 10.0764L3.78441 10.3288C3.25615 10.9034 2.55086 11.2246 1.81691 11.2247H0.937502V10.0794C0.937502 9.78744 0.727627 9.55075 0.468751 9.55075C0.209875 9.55075 0 9.78744 0 10.0794V15.4714C0 15.7633 0.209875 16 0.468751 16C0.727627 16 0.937502 15.7633 0.937502 15.4714V14.3965H1.57288C3.25544 14.3965 4.90045 13.5985 6.06886 12.1181L6.5377 12.4853C6.7517 12.6529 7.04592 12.5914 7.19252 12.3487L8.04174 10.9428L9.97259 12.4978C10.0556 12.5647 10.1557 12.5992 10.2576 12.5961C10.3596 12.593 10.4579 12.5525 10.5376 12.4807L11.2372 11.8503L13.0562 13.3268C13.2583 13.4909 13.5387 13.4481 13.6949 13.2297L15.8961 10.1538C16.0677 9.91389 16.0216 9.55921 15.7956 9.38522ZM1.57288 13.3392H0.937502V12.282H1.81688C2.33196 12.2818 2.84157 12.1628 3.31429 11.9321C3.78701 11.7014 4.21283 11.3639 4.56551 10.9406L5.29226 11.5098C4.33879 12.6637 2.98191 13.3392 1.57288 13.3392ZM6.68395 11.3126L4.38435 9.51149L5.01326 8.50386L7.27861 10.3283L6.68395 11.3126ZM10.2291 11.4053L2.54326 5.21552L5.50548 1.05748L14.0188 7.99085L10.2291 11.4053ZM13.2438 12.1764L11.9977 11.165L14.0469 9.31865L14.8476 9.93535L13.2438 12.1764Z" fill="#717171"/>
</svg>
