<svg width="18" height="18" viewBox="0 0 18 18" fill="none" xmlns="http://www.w3.org/2000/svg">
<mask id="mask0_1294_24966" style="mask-type:luminance" maskUnits="userSpaceOnUse" x="0" y="0" width="18" height="18">
<path d="M17.4999 17.5V0.500053H0.5V17.5H17.4999Z" fill="white" stroke="white"/>
</mask>
<g mask="url(#mask0_1294_24966)">
<path d="M4.23402 15.2043L8.99997 10.4384L13.7658 15.2043H4.23402ZM17.1293 15.9614L9.84723 8.75347V7.62376C11.3089 7.24759 12.3891 5.92066 12.3891 4.34151C12.3891 2.46983 10.8717 0.952425 8.99997 0.952425C7.12829 0.952425 5.61091 2.46983 5.61091 4.34151C5.61091 4.80948 5.99021 5.18874 6.45821 5.18874C6.92607 5.18874 7.30544 4.80948 7.30544 4.34151C7.30544 3.40566 8.06411 2.64695 8.99997 2.64695C9.93586 2.64695 10.6945 3.40566 10.6945 4.34151C10.6945 5.27737 9.93586 6.03604 8.99997 6.03604C8.532 6.03604 8.15274 6.41537 8.15274 6.88327V8.75347L0.87067 15.9612C0.273297 16.5586 0.475726 17.0473 1.32046 17.0473L16.6795 17.0474C17.5242 17.0474 17.7267 16.5586 17.1293 15.9614Z" stroke="#717171" stroke-miterlimit="10" stroke-linecap="round" stroke-linejoin="round"/>
</g>
</svg>
