<svg width="16" height="17" viewBox="0 0 16 17" fill="none" xmlns="http://www.w3.org/2000/svg">
<path d="M15.5937 0H10.5312L3.21869 9.95529H8.28116L15.5937 0Z" fill="#BF392C"/>
<path d="M0.40625 0H5.46872L12.7812 9.95529H7.71873L0.40625 0Z" fill="#E2574C"/>
<path d="M8.28126 5.23975C11.7125 5.23975 14.4688 7.80719 14.4688 11.0034C14.4688 14.1995 11.7125 16.767 8.28126 16.767C4.85002 16.767 2.09375 14.1995 2.09375 11.0034C2.09375 7.80719 4.85002 5.23975 8.28126 5.23975Z" fill="#EFC75E"/>
<path d="M8.28127 6.81152C5.80629 6.81152 3.78125 8.69777 3.78125 11.0033C3.78125 13.3087 5.80623 15.195 8.28127 15.195C10.7563 15.195 12.7813 13.3087 12.7813 11.0033C12.7813 8.69777 10.7562 6.81152 8.28127 6.81152ZM8.28127 14.147C6.425 14.147 4.90628 12.7323 4.90628 11.0033C4.90628 9.27421 6.42506 7.85948 8.28127 7.85948C10.1375 7.85948 11.6562 9.27421 11.6562 11.0033C11.6562 12.7323 10.1375 14.147 8.28127 14.147Z" fill="#D7B354"/>
</svg>
