<svg width="24" height="24" viewBox="0 0 24 24" fill="none" xmlns="http://www.w3.org/2000/svg">
<path d="M13.9931 3.19943L13.9934 3.19962L19.7533 7.22955C19.7533 7.22957 19.7533 7.2296 19.7534 7.22962C20.2226 7.55809 20.6668 8.09665 20.9943 8.72383C21.3217 9.35104 21.51 10.0242 21.51 10.5999V17.3799C21.51 19.6538 19.6638 21.4999 17.39 21.4999H6.60999C4.33754 21.4999 2.48999 19.6452 2.48999 17.3699V10.4699C2.48999 9.9355 2.66038 9.29642 2.95857 8.6908C3.25662 8.08545 3.66106 7.55682 4.08751 7.22419L4.08761 7.2241L9.09624 3.31518C9.09645 3.31501 9.09667 3.31484 9.09689 3.31467C10.4337 2.27937 12.6028 2.22535 13.9931 3.19943Z" stroke="#686868"/>
<path d="M12 18.75C11.59 18.75 11.25 18.41 11.25 18V15C11.25 14.59 11.59 14.25 12 14.25C12.41 14.25 12.75 14.59 12.75 15V18C12.75 18.41 12.41 18.75 12 18.75Z" fill="#686868"/>
</svg>
