<svg width="15" height="18" viewBox="0 0 15 18" fill="none" xmlns="http://www.w3.org/2000/svg">
<path d="M13.8 5V13C13.8 16.2 13 17 9.8 17H5C1.8 17 1 16.2 1 13V5C1 1.8 1.8 1 5 1H9.8C13 1 13.8 1.8 13.8 5Z" stroke="#959595" stroke-linecap="round" stroke-linejoin="round"/>
<path d="M8.9998 3.80005H5.7998" stroke="#959595" stroke-linecap="round" stroke-linejoin="round"/>
<path d="M7.40016 14.68C8.08499 14.68 8.64016 14.1248 8.64016 13.44C8.64016 12.7551 8.08499 12.2 7.40016 12.2C6.71532 12.2 6.16016 12.7551 6.16016 13.44C6.16016 14.1248 6.71532 14.68 7.40016 14.68Z" stroke="#959595" stroke-linecap="round" stroke-linejoin="round"/>
</svg>
