<svg width="18" height="19" viewBox="0 0 18 19" fill="none" xmlns="http://www.w3.org/2000/svg">
<path d="M9.01501 3.18262C6.53251 3.18262 4.515 5.20012 4.515 7.68262V9.85012C4.515 10.3076 4.32 11.0051 4.0875 11.3951L3.225 12.8276C2.6925 13.7126 3.06 14.6951 4.035 15.0251C7.2675 16.1051 10.755 16.1051 13.9875 15.0251C14.895 14.7251 15.2925 13.6526 14.7975 12.8276L13.935 11.3951C13.71 11.0051 13.515 10.3076 13.515 9.85012V7.68262C13.515 5.20762 11.49 3.18262 9.01501 3.18262Z" stroke="#959595" stroke-miterlimit="10" stroke-linecap="round"/>
<path d="M10.4025 3.40008C10.17 3.33258 9.93 3.28008 9.6825 3.25008C8.9625 3.16008 8.2725 3.21258 7.6275 3.40008C7.845 2.84508 8.385 2.45508 9.015 2.45508C9.645 2.45508 10.185 2.84508 10.4025 3.40008Z" stroke="#959595" stroke-miterlimit="10" stroke-linecap="round" stroke-linejoin="round"/>
<path d="M11.265 15.2949C11.265 16.5324 10.2525 17.5449 9.01501 17.5449C8.40001 17.5449 7.83001 17.2899 7.42501 16.8849C7.02001 16.4799 6.76501 15.9099 6.76501 15.2949" stroke="#959595" stroke-miterlimit="10"/>
<circle cx="13" cy="5" r="5" fill="#4DA747"/>
</svg>
