<svg width="31" height="16" viewBox="0 0 31 16" fill="none" xmlns="http://www.w3.org/2000/svg">
<path d="M30.4163 10.9396L30.0208 7.14399C30.0072 7.01331 29.954 6.88989 29.8684 6.7902C29.7829 6.69051 29.6689 6.61928 29.5418 6.58604L21.5648 4.51209L18.2224 0.923686C18.1129 0.806155 17.9635 0.733628 17.8034 0.72024L9.09387 0.00210278C8.88662 -0.0145981 8.68394 0.0689067 8.54957 0.226806L5.68158 3.59506L0.962827 4.40126C0.820746 4.4255 0.690866 4.4966 0.593876 4.60322C0.496886 4.70984 0.438367 4.84585 0.427641 4.98958L0.0017691 10.724C-0.00765029 10.851 0.0206938 10.9779 0.0832349 11.0888C0.145776 11.1997 0.23972 11.2897 0.353246 11.3473L3.30247 12.8435C3.5507 14.6245 5.08338 16 6.93111 16C8.73176 16 10.2326 14.6943 10.5385 12.9802H20.9674C21.2733 14.6943 22.7741 16 24.5748 16C26.4051 16 27.9256 14.6518 28.1966 12.8959C28.2141 12.8861 28.2323 12.8747 28.249 12.8633L30.1445 11.5356C30.2388 11.4694 30.3137 11.3793 30.3614 11.2746C30.4092 11.1698 30.4282 11.0542 30.4163 10.9396ZM19.9388 4.65936L14.5513 5.22643L13.3473 1.6479L17.4488 1.98647L19.9388 4.65936ZM9.31781 1.3154L11.9467 1.53251L13.1408 5.0822L7.20971 3.79016L9.31781 1.3154ZM6.93186 14.7087C5.62237 14.7087 4.55731 13.6437 4.55731 12.3342C4.55731 11.0247 5.62237 9.95961 6.93186 9.95961C8.24136 9.95961 9.30642 11.0247 9.30642 12.3342C9.30642 13.6437 8.24136 14.7087 6.93186 14.7087ZM24.5748 14.7087C23.2653 14.7087 22.2002 13.6437 22.2002 12.3342C22.2002 11.0247 23.2653 9.95961 24.5748 9.95961C25.8843 9.95961 26.9494 11.0247 26.9494 12.3342C26.9494 13.6437 25.8843 14.7087 24.5748 14.7087ZM28.1139 11.3822C27.6933 9.82145 26.2669 8.66909 24.5748 8.66909C22.7741 8.66909 21.2733 9.97479 20.9674 11.6889H10.5392C10.2333 9.97479 8.73252 8.66909 6.93186 8.66909C5.22154 8.66909 3.78072 9.84726 3.37914 11.4346L1.32114 10.39L1.67793 5.58702L6.00648 4.84763L13.8749 6.56174C13.9422 6.5762 14.0114 6.57979 14.0798 6.57237L21.3652 5.80565C21.3766 5.80413 21.3872 5.80261 21.3978 5.80034L28.7849 7.72093L29.0947 10.6944L28.1139 11.3822Z" fill="#717171"/>
</svg>
