<svg width="16" height="16" viewBox="0 0 16 16" fill="none" xmlns="http://www.w3.org/2000/svg">
<path fill-rule="evenodd" clip-rule="evenodd" d="M6.16602 2.63438C6.31599 2.7844 6.40024 2.98784 6.40024 3.19998C6.40024 3.41211 6.31599 3.61555 6.16602 3.76558L4.33162 5.59998H8.80042C10.2856 5.59998 11.71 6.18997 12.7602 7.24018C13.8104 8.29038 14.4004 9.71476 14.4004 11.2V12.8C14.4004 13.0121 14.3161 13.2156 14.1661 13.3657C14.0161 13.5157 13.8126 13.6 13.6004 13.6C13.3882 13.6 13.1848 13.5157 13.0347 13.3657C12.8847 13.2156 12.8004 13.0121 12.8004 12.8V11.2C12.8004 10.1391 12.379 9.12169 11.6288 8.37155C10.8787 7.6214 9.86128 7.19998 8.80042 7.19998H4.33162L6.16602 9.03438C6.24242 9.10817 6.30337 9.19645 6.3453 9.29405C6.38722 9.39166 6.40929 9.49663 6.41022 9.60286C6.41114 9.70908 6.3909 9.81442 6.35067 9.91274C6.31045 10.0111 6.25105 10.1004 6.17593 10.1755C6.10082 10.2506 6.0115 10.31 5.91318 10.3502C5.81486 10.3905 5.70952 10.4107 5.60329 10.4098C5.49707 10.4089 5.3921 10.3868 5.29449 10.3449C5.19689 10.3029 5.10861 10.242 5.03482 10.1656L1.83482 6.96558C1.68484 6.81555 1.60059 6.61211 1.60059 6.39998C1.60059 6.18784 1.68484 5.9844 1.83482 5.83438L5.03482 2.63438C5.18484 2.4844 5.38828 2.40015 5.60042 2.40015C5.81255 2.40015 6.01599 2.4844 6.16602 2.63438Z" fill="#4361EE"/>
</svg>
