<svg width="24" height="24" viewBox="0 0 24 24" fill="none" xmlns="http://www.w3.org/2000/svg">
<circle cx="12" cy="12" r="11.25" stroke="white" stroke-width="1.5"/>
<path d="M11.3315 15.5211V8.47885C11.3315 7.81029 11.0492 7.54286 10.3361 7.54286H8.53839C7.82525 7.54286 7.54297 7.81029 7.54297 8.47885V15.5211C7.54297 16.1897 7.82525 16.4571 8.53839 16.4571H10.3361C11.0492 16.4571 11.3315 16.1897 11.3315 15.5211Z" stroke="white" stroke-linecap="round" stroke-linejoin="round"/>
<path d="M16.4573 15.521V8.47874C16.4573 7.81017 16.175 7.54275 15.4618 7.54275H13.6641C12.9559 7.54275 12.6687 7.81017 12.6687 8.47874V15.521C12.6687 16.1896 12.951 16.457 13.6641 16.457H15.4618C16.175 16.457 16.4573 16.1896 16.4573 15.521Z" stroke="white" stroke-linecap="round" stroke-linejoin="round"/>
</svg>
