<svg width="24" height="24" viewBox="0 0 24 24" fill="none" xmlns="http://www.w3.org/2000/svg">
<path d="M21.2499 3.99994C21.2499 5.79492 19.795 7.25006 18 7.25006C16.205 7.25006 14.7501 5.79492 14.7501 3.99994C14.7501 2.20514 16.205 0.75 18 0.75C19.795 0.75 21.2499 2.20514 21.2499 3.99994Z" fill="#EBC82A"/>
<path d="M18 8.00006C15.7939 8.00006 14.0001 6.20599 14.0001 3.99994C14.0001 1.79407 15.7939 0 18 0C20.2061 0 21.9999 1.79407 21.9999 3.99994C21.9999 6.20599 20.2061 8.00006 18 8.00006ZM18 1.5C16.621 1.5 15.5001 2.62207 15.5001 3.99994C15.5001 5.37799 16.621 6.50006 18 6.50006C19.379 6.50006 20.4999 5.37799 20.4999 3.99994C20.4999 2.62207 19.379 1.5 18 1.5Z" fill="#EBC82A"/>
<path d="M21.2499 20.0001C21.2499 21.7949 19.795 23.2501 18 23.2501C16.205 23.2501 14.7501 21.7949 14.7501 20.0001C14.7501 18.2051 16.205 16.75 18 16.75C19.795 16.75 21.2499 18.2051 21.2499 20.0001Z" fill="#EBC82A"/>
<path d="M18 24.0001C15.7939 24.0001 14.0001 22.206 14.0001 20.0001C14.0001 17.7941 15.7939 16 18 16C20.2061 16 21.9999 17.7941 21.9999 20.0001C21.9999 22.206 20.2061 24.0001 18 24.0001ZM18 17.5C16.621 17.5 15.5001 18.6221 15.5001 20.0001C15.5001 21.378 16.621 22.5001 18 22.5001C19.379 22.5001 20.4999 21.378 20.4999 20.0001C20.4999 18.6221 19.379 17.5 18 17.5Z" fill="#EBC82A"/>
<path d="M7.25006 11.9999C7.25006 13.7949 5.79492 15.2499 3.99994 15.2499C2.20514 15.2499 0.75 13.7949 0.75 11.9999C0.75 10.205 2.20514 8.75 3.99994 8.75C5.79492 8.75 7.25006 10.205 7.25006 11.9999Z" fill="#EBC82A"/>
<path d="M3.99994 15.9999C1.79407 15.9999 0 14.206 0 11.9999C0 9.79388 1.79407 8 3.99994 8C6.20599 8 8.00006 9.79388 8.00006 11.9999C8.00006 14.206 6.20599 15.9999 3.99994 15.9999ZM3.99994 9.5C2.62097 9.5 1.5 10.6219 1.5 11.9999C1.5 13.378 2.62097 14.4999 3.99994 14.4999C5.37909 14.4999 6.50006 13.378 6.50006 11.9999C6.50006 10.6219 5.37909 9.5 3.99994 9.5Z" fill="#EBC82A"/>
<path d="M6.36108 11.5203C6.013 11.5203 5.67499 11.3392 5.49096 11.0153C5.21795 10.5363 5.38605 9.92524 5.86505 9.65113L15.1439 4.36122C15.6229 4.08619 16.2339 4.25428 16.5081 4.73512C16.7811 5.21412 16.613 5.82515 16.134 6.09925L6.85492 11.3892C6.69891 11.4782 6.52899 11.5203 6.36108 11.5203Z" fill="#EBC82A"/>
<path d="M15.639 19.7701C15.4709 19.7701 15.301 19.728 15.145 19.639L5.86596 14.3491C5.38696 14.076 5.21905 13.465 5.49206 12.9849C5.76397 12.505 6.37591 12.336 6.85602 12.611L16.1351 17.9009C16.6141 18.1739 16.782 18.785 16.509 19.2651C16.324 19.589 15.986 19.7701 15.639 19.7701Z" fill="#EBC82A"/>
</svg>
