<svg width="62" height="62" viewBox="0 0 62 62" fill="none" xmlns="http://www.w3.org/2000/svg">
<g clip-path="url(#clip0_1294_31284)">
<path d="M13.9913 16.151C12.9629 16.151 12.1294 15.3175 12.1294 14.2891V11.8019C12.1294 10.7742 12.9629 9.94019 13.9912 9.94019C15.0196 9.94019 15.853 10.7742 15.853 11.802V14.2891C15.853 15.3175 15.0197 16.151 13.9913 16.151ZM13.9913 26.3446C12.9629 26.3446 12.1294 25.5111 12.1294 24.4828V21.9956C12.1294 20.9677 12.9629 20.1339 13.9912 20.1339C15.0196 20.1339 15.853 20.9677 15.853 21.9957V24.4828C15.853 25.5111 15.0197 26.3446 13.9913 26.3446ZM9.63851 20.0042H7.15125C6.1234 20.0042 5.28955 19.1708 5.28955 18.1424C5.28955 17.1145 6.1234 16.2811 7.15137 16.2811H9.63851C10.6668 16.2811 11.5003 17.1145 11.5003 18.1424C11.5003 19.1708 10.6668 20.0042 9.63851 20.0042ZM20.8307 20.0042H18.3435C17.3156 20.0042 16.4816 19.1708 16.4816 18.1424C16.4816 17.1145 17.3156 16.2811 18.3435 16.2811H20.8307C21.8591 16.2811 22.6925 17.1145 22.6925 18.1424C22.6925 19.1708 21.8591 20.0042 20.8307 20.0042Z" fill="#FFE733"/>
<path d="M34.856 6.2109C33.8276 6.2109 32.9942 5.3768 32.9942 4.34896V1.86182C32.9942 0.833488 33.8276 0 34.856 0C35.8838 0 36.7178 0.833488 36.7178 1.86182V4.34908C36.7178 5.37729 35.8838 6.2109 34.856 6.2109ZM34.856 16.4044C33.8276 16.4044 32.9942 15.5705 32.9942 14.5426V12.0554C32.9942 11.027 33.8276 10.1937 34.856 10.1937C35.8838 10.1937 36.7178 11.027 36.7178 12.0555V14.5426C36.7178 15.571 35.8838 16.4044 34.856 16.4044ZM30.5031 10.0641H28.0161C26.9878 10.0641 26.1543 9.23061 26.1543 8.20216C26.1543 7.17372 26.9878 6.34035 28.0161 6.34035H30.5034C31.5317 6.34035 32.3651 7.17384 32.3651 8.20216C32.3651 9.23049 31.5317 10.064 30.5033 10.064L30.5031 10.0641ZM41.6953 10.0641H39.2082C38.1804 10.0641 37.3464 9.23061 37.3464 8.20216C37.3464 7.17372 38.1804 6.34035 39.2082 6.34035H41.6955C42.7237 6.34035 43.5572 7.17384 43.5572 8.20216C43.5572 9.23049 42.7237 10.0641 41.6953 10.0641ZM50.3257 43.7768C49.2977 43.7768 48.4639 42.9434 48.4639 41.915V39.4278C48.4639 38.3999 49.2977 37.5661 50.3257 37.5661C51.354 37.5661 52.1875 38.3999 52.1875 39.4279V41.915C52.1875 42.9434 51.354 43.7768 50.3257 43.7768ZM50.3257 53.9704C49.2977 53.9704 48.4639 53.137 48.4639 52.1086V49.6214C48.4639 48.5936 49.2977 47.7596 50.3257 47.7596C51.354 47.7596 52.1875 48.5936 52.1875 49.6214V52.1087C52.1875 53.137 51.354 53.9704 50.3257 53.9704ZM45.9729 47.63H43.4858C42.458 47.63 41.6246 46.7966 41.6246 45.7682C41.6246 44.7399 42.458 43.9064 43.4858 43.9064H45.9731C47.0014 43.9064 47.8348 44.7399 47.8348 45.7682C47.8348 46.7966 47.0013 47.63 45.9729 47.63ZM57.1651 47.63H54.6785C53.6502 47.63 52.8167 46.7966 52.8167 45.7682C52.8167 44.7399 53.6502 43.9064 54.6785 43.9064H57.1652C58.1935 43.9064 59.027 44.7399 59.027 45.7682C59.027 46.7966 58.1935 47.63 57.1652 47.63H57.1651Z" fill="#FFBC36"/>
<path d="M19.1087 56.1034C17.0252 56.1034 14.9419 55.3101 13.3556 53.724L2.11829 42.4865C-0.706098 39.6626 -0.706098 35.0671 2.11829 32.2427C3.48629 30.8747 5.30548 30.1212 7.2402 30.1212C9.17491 30.1212 10.9941 30.8742 12.3621 32.2427L19.1088 38.9888L49.6381 8.45966C52.4621 5.63576 57.0576 5.63527 59.882 8.45966C62.7063 11.2842 62.7063 15.8796 59.882 18.704L24.8616 53.7243C23.2757 55.3102 21.192 56.1035 19.1088 56.1035L19.1087 56.1034Z" fill="#4DA747" fill-opacity="0.57"/>
<path d="M49.638 8.45966L31 27.0974V47.5855L59.8818 18.7032C62.7062 15.8793 62.7062 11.2838 59.8818 8.45942C57.0574 5.63503 52.4619 5.63551 49.638 8.45942V8.45966Z" fill="#4DA747"/>
</g>
<defs>
<clipPath id="clip0_1294_31284">
<rect width="62" height="62" fill="white"/>
</clipPath>
</defs>
</svg>
