<svg width="16" height="16" viewBox="0 0 16 16" fill="none" xmlns="http://www.w3.org/2000/svg">
<g clip-path="url(#clip0_1294_24976)">
<path d="M11.8424 6.80869C11.8134 6.77964 11.7789 6.75659 11.741 6.74086C11.7031 6.72514 11.6624 6.71704 11.6213 6.71704C11.5803 6.71704 11.5396 6.72514 11.5017 6.74086C11.4637 6.75659 11.4293 6.77964 11.4002 6.80869C11.2784 6.93057 11.2784 7.12838 11.4002 7.25056C11.4293 7.27962 11.4637 7.30267 11.5017 7.3184C11.5396 7.33412 11.5803 7.34222 11.6213 7.34222C11.6624 7.34222 11.7031 7.33412 11.741 7.3184C11.7789 7.30267 11.8134 7.27962 11.8424 7.25056C11.9643 7.12838 11.9643 6.93057 11.8424 6.80869Z" fill="#717171"/>
<path d="M15.7237 2.04335L13.9558 0.275512C13.5895 -0.0907983 12.9966 -0.0909233 12.6301 0.275512L12.0633 0.842384C11.8308 1.07482 11.7419 1.4021 11.812 1.7131L9.24912 2.16531C8.67756 2.26647 8.15897 2.53662 7.7496 2.94637L7.20172 3.49393C6.84091 3.85474 6.69388 4.34958 6.76044 4.81967C6.28685 4.7528 5.79614 4.89983 5.43427 5.26167C5.07292 5.62279 4.92517 6.1131 4.99202 6.58769C4.51861 6.5211 4.02802 6.66794 3.66643 7.02953C3.31537 7.3806 3.15547 7.86669 3.22453 8.35606C2.75437 8.28943 2.2595 8.43646 1.89863 8.79731L0.639543 10.0561C-0.213171 10.9089 -0.213202 12.2967 0.639574 13.1499L2.84931 15.3596C3.70234 16.2122 5.09011 16.2125 5.94311 15.3595L7.20182 14.1005C7.56269 13.7396 7.70972 13.2447 7.64303 12.7745C8.13025 12.8432 8.61718 12.6851 8.96959 12.3327C9.33034 11.972 9.47733 11.4771 9.41074 11.0069C9.89536 11.0754 10.383 10.9196 10.7374 10.5649C11.0982 10.2041 11.2452 9.70936 11.1786 9.2393C11.6679 9.30837 12.1541 9.14859 12.5053 8.79734L13.0527 8.24971C13.4626 7.84015 13.7327 7.32153 13.8339 6.74982L14.2861 4.18718C14.5965 4.25714 14.9239 4.16883 15.1568 3.9359L15.7237 3.36902C16.0901 3.00265 16.0901 2.40975 15.7237 2.04335ZM6.75985 13.6586L5.50114 14.9176C4.89202 15.5267 3.90059 15.5267 3.29122 14.9176L1.08157 12.708C0.472419 12.0986 0.472419 11.1072 1.08151 10.498L2.3406 9.23927C2.70612 8.87371 3.3009 8.87371 3.66646 9.23927L6.75988 12.3327C7.12544 12.6982 7.12544 13.293 6.75985 13.6586ZM8.52762 11.8908C8.16225 12.2561 7.56869 12.2577 7.20179 11.8908L4.10837 8.79734C3.74209 8.43103 3.74199 7.83787 4.1084 7.47147C4.47443 7.10541 5.06717 7.10528 5.43398 7.47125L5.43423 7.4715L8.52753 10.5648L8.52756 10.5648V10.5648C8.89303 10.9305 8.89309 11.5253 8.52762 11.8908ZM10.2954 10.1231C9.92939 10.4895 9.33577 10.4895 8.96962 10.123L5.87611 7.02947C5.50961 6.66322 5.50942 6.07017 5.8762 5.70367C6.24273 5.33714 6.83516 5.33708 7.20175 5.70367L10.2955 8.7974C10.661 9.16283 10.661 9.75749 10.2954 10.1231ZM13.2184 6.6411C13.1397 7.08575 12.9297 7.48913 12.6107 7.80775L12.0633 8.35546C11.6978 8.72102 11.103 8.72102 10.7374 8.35546L7.64369 5.26173C7.27816 4.89617 7.27816 4.30143 7.64363 3.93593L8.19159 3.38827C8.51003 3.06953 8.91343 2.85947 9.3579 2.78078L12.1783 2.28313L13.716 3.82087L13.2184 6.6411ZM15.2817 2.92709L14.7149 3.49396C14.6859 3.523 14.6514 3.54603 14.6135 3.56175C14.5756 3.57747 14.535 3.58556 14.494 3.58556C14.4529 3.58556 14.4123 3.57747 14.3744 3.56175C14.3365 3.54603 14.3021 3.523 14.2731 3.49396L12.5053 1.72613C12.4762 1.69713 12.4532 1.6627 12.4375 1.62479C12.4218 1.58688 12.4137 1.54625 12.4137 1.50522C12.4137 1.46418 12.4218 1.42355 12.4375 1.38565C12.4532 1.34774 12.4762 1.31331 12.5053 1.28432L13.0722 0.717447C13.1012 0.688411 13.1356 0.665376 13.1735 0.64966C13.2114 0.633943 13.252 0.625853 13.2931 0.625853C13.3341 0.625853 13.3747 0.633943 13.4126 0.64966C13.4505 0.665376 13.485 0.688411 13.514 0.717447L15.2817 2.48528C15.3108 2.51428 15.3338 2.54871 15.3495 2.58661C15.3652 2.62452 15.3733 2.66515 15.3733 2.70619C15.3733 2.74722 15.3652 2.78785 15.3495 2.82576C15.3338 2.86366 15.3108 2.8981 15.2817 2.92709ZM15.7941 11.8368L14.4016 9.10874C14.3755 9.05745 14.3356 9.01439 14.2865 8.98432C14.2374 8.95425 14.1809 8.93834 14.1233 8.93834C14.0657 8.93834 14.0092 8.95425 13.9601 8.98432C13.911 9.01439 13.8712 9.05745 13.845 9.10874L12.4526 11.8367C11.8197 13.0748 12.7215 14.5633 14.1233 14.5633C15.5248 14.5633 16.427 13.0751 15.7941 11.8368ZM14.1233 13.9383C13.1879 13.9383 12.5881 12.9448 13.0092 12.121L14.1233 9.93817L15.2375 12.1211C15.6581 12.9441 15.0596 13.9383 14.1233 13.9383Z" fill="#717171"/>
<path d="M10.9585 5.92448L9.44975 4.41574C9.32769 4.29371 9.12988 4.29371 9.00778 4.41574C8.88575 4.53777 8.88575 4.73565 9.00778 4.85768L10.5165 6.36642C10.6386 6.48845 10.8364 6.48845 10.9585 6.36642C11.0805 6.24436 11.0805 6.04651 10.9585 5.92448Z" fill="#717171"/>
</g>
<defs>
<clipPath id="clip0_1294_24976">
<rect width="16" height="16" fill="white"/>
</clipPath>
</defs>
</svg>
